<?xml version="1.0"?>
<svg xmlns="http://www.w3.org/2000/svg" id="Layer_1" data-name="Layer 1" viewBox="0 0 64 64"><path d="M16.8,42.2v4.17h-3.12a1,1,0,0,0-.972,1.237l3.32,13.631A1,1,0,0,0,17,62H42.357a1,1,0,0,0,.972-.762l1.054-4.317h.869a1.772,1.772,0,0,0,1.77-1.771V53.43l1.217,1.216a1.813,1.813,0,0,0,2.5,0l2.833-2.833a1.767,1.767,0,0,0,0-2.505l-1.216-1.216h1.72a1.774,1.774,0,0,0,1.772-1.772V42.313a1.774,1.774,0,0,0-1.772-1.771h-1.72l1.215-1.215a1.768,1.768,0,0,0,0-2.506l-2.833-2.832a1.813,1.813,0,0,0-2.506,0L47.022,35.2v-.193A20.006,20.006,0,0,0,51.208,22.76C51.208,11.313,41.55,2,29.678,2S8.147,11.313,8.147,22.76a20.2,20.2,0,0,0,6.705,15.027A6,6,0,0,1,16.8,42.2Zm1,6.17H33.856l-.936.937A1.756,1.756,0,0,0,32.4,50.56a1.776,1.776,0,0,0,.086.52H15.611l-.66-2.71Zm21.7,7.05H16.668l-.57-2.34H34.187l1.566,1.566a1.775,1.775,0,0,0,2.505,0l1.216-1.216v1.72A1.727,1.727,0,0,0,39.5,55.42ZM17.783,60l-.628-2.58H42.2L41.572,60ZM48.047,37.008l1.444-1.444L52,38.074l-1.445,1.445a1.771,1.771,0,0,0,1.254,3.023h2.043v3.55H51.81a1.771,1.771,0,0,0-1.253,3.024L52,50.56l-2.51,2.51-1.444-1.445a1.772,1.772,0,0,0-3.025,1.253v2.043H41.474V52.878a1.772,1.772,0,0,0-3.025-1.252l-1.444,1.445-2.51-2.511,1.443-1.444A1.743,1.743,0,0,0,36,46.689a.631.631,0,0,0-.061-.055,1.75,1.75,0,0,0-1.254-.542H32.645v-3.55h2.042a1.771,1.771,0,0,0,1.251-3.024l-1.443-1.444,2.511-2.51,1.443,1.444a1.772,1.772,0,0,0,3.025-1.253V33.713h3.548v2.043a1.772,1.772,0,0,0,3.025,1.252ZM30.678,12.578a2.761,2.761,0,0,1,5.511-.252,1,1,0,0,0,1.443.8,2.951,2.951,0,0,1,1.328-.315,2.992,2.992,0,0,1,2.465,4.691,1,1,0,0,0,.349,1.45,2.989,2.989,0,0,1,.173,5.173,1,1,0,0,0-.348,1.321,2.946,2.946,0,0,1,.355,1.413,3,3,0,0,1-2.994,2.994,2.956,2.956,0,0,1-1.315-.309,1,1,0,0,0-1.442.9v.166a2.763,2.763,0,1,1-5.525,0ZM29.678,4c10.768,0,19.53,8.416,19.53,18.76a17.939,17.939,0,0,1-2.7,9.474,1.76,1.76,0,0,0-1.252-.521H41.244a1.773,1.773,0,0,0-1.77,1.771V35.2l-1.217-1.217a1.751,1.751,0,0,0-1.045-.5,4.734,4.734,0,0,0,.848-1.716,4.892,4.892,0,0,0,.9.082A4.992,4.992,0,0,0,43.7,25.3a4.99,4.99,0,0,0-.145-7.544A4.992,4.992,0,0,0,37.9,10.928,4.8,4.8,0,0,0,33.44,7.815a4.74,4.74,0,0,0-3.762,1.877,4.742,4.742,0,0,0-3.763-1.877,4.806,4.806,0,0,0-4.463,3.113A4.992,4.992,0,0,0,15.8,17.757a4.989,4.989,0,0,0-.146,7.544A4.992,4.992,0,0,0,20.4,31.856a4.908,4.908,0,0,0,.9-.082A4.743,4.743,0,0,0,29.678,33.5,4.621,4.621,0,0,0,34.5,35.239L32.92,36.821a1.767,1.767,0,0,0,0,2.505l1.215,1.216H32.415a1.772,1.772,0,0,0-1.77,1.771V46.32c0,.017,0,.033,0,.05H18.8V42.2A8.01,8.01,0,0,0,16.2,36.312,18.223,18.223,0,0,1,10.147,22.76C10.147,12.416,18.909,4,29.678,4Zm-1,26.61a2.763,2.763,0,0,1-5.526,0v-.166a1,1,0,0,0-1.441-.9,2.956,2.956,0,0,1-1.315.309,3,3,0,0,1-3-2.994,2.959,2.959,0,0,1,.356-1.414,1,1,0,0,0-.349-1.32,2.989,2.989,0,0,1,.173-5.173,1,1,0,0,0,.35-1.45,2.989,2.989,0,0,1,3.793-4.376,1,1,0,0,0,1.442-.8,2.762,2.762,0,0,1,5.512.252Z"/><path d="M23.553,23.817a3.91,3.91,0,0,1,.158-2.907,1,1,0,1,0-1.809-.852,5.863,5.863,0,0,0-.228,4.446,5.692,5.692,0,0,0,2.033,2.663,1,1,0,0,0,1.168-1.624A3.745,3.745,0,0,1,23.553,23.817Z"/><path d="M35.8,18.923a3.893,3.893,0,0,1-.157,2.906,1,1,0,1,0,1.806.856,5.838,5.838,0,0,0,.23-4.449,5.684,5.684,0,0,0-2.033-2.661A1,1,0,0,0,34.479,17.2,3.753,3.753,0,0,1,35.8,18.923Z"/><path d="M37.358,44.317a5.891,5.891,0,1,0,5.89-5.89A5.9,5.9,0,0,0,37.358,44.317Zm9.781,0a3.891,3.891,0,1,1-3.891-3.89A3.895,3.895,0,0,1,47.139,44.317Z"/></svg>
