<?xml version="1.0" encoding="UTF-8"?>
<svg xmlns="http://www.w3.org/2000/svg" id="Layer_1" data-name="Layer 1" viewBox="0 0 64 64" width="512" height="512"><path d="M41,9a7,7,0,1,0,7-7A7,7,0,0,0,41,9ZM53,9a5,5,0,1,1-5-5A5,5,0,0,1,53,9Z"/><path d="M57.37,17.62a7.6,7.6,0,0,0-3-.62H42.66A4.66,4.66,0,0,1,38,12.34V6a4,4,0,0,0-4.28-4A3.84,3.84,0,0,0,32,2.57,3.8,3.8,0,0,0,30.3,2,4,4,0,0,0,26,6v6.34A4.66,4.66,0,0,1,21.34,17H9.66A7.65,7.65,0,0,0,2,24.66V36a3.94,3.94,0,0,0,1.33,3,4,4,0,0,0,3,1A3.72,3.72,0,0,0,8,39.44V57.55A4.47,4.47,0,0,0,12.5,62,4.52,4.52,0,0,0,16,60.34,4.52,4.52,0,0,0,19.5,62a4.45,4.45,0,0,0,3.17-1.29,4.64,4.64,0,0,0,1-1.62l.51.52a1,1,0,0,0,1.42,0l1-1a11.34,11.34,0,0,0,2.36,1V61a1,1,0,0,0,1,1h4a1,1,0,0,0,1-1V59.59a11.34,11.34,0,0,0,2.36-1l1,1a1,1,0,0,0,1.42,0l.51-.52A4.51,4.51,0,0,0,48,60.34,4.52,4.52,0,0,0,51.5,62,4.47,4.47,0,0,0,56,57.55V39.44a3.68,3.68,0,0,0,1.62.55H58a4,4,0,0,0,4-4V24.66A7.67,7.67,0,0,0,57.37,17.62ZM46.11,30.29l1.35-7.35A4.69,4.69,0,0,0,48,23a4.69,4.69,0,0,0,.54-.06l1.34,7.33a1.52,1.52,0,0,1-.07.81L48,34.74l-1.79-3.62A1.56,1.56,0,0,1,46.11,30.29Zm2.77-9.49A2,2,0,0,1,46,19h4A2,2,0,0,1,48.88,20.8ZM40,38.62l-.22-.23a1,1,0,0,0-1.42,0l-1,1A10.56,10.56,0,0,0,36,38.75V32h1a1,1,0,0,0,.77-1.64l-5-6a1,1,0,0,0-1.54,0l-5,6A1,1,0,0,0,27,32h1v6.75a10.56,10.56,0,0,0-1.36.65l-1-1a1,1,0,0,0-1.42,0l-.22.23V25.39a.51.51,0,0,1,.45-.49,11.08,11.08,0,0,0,6.33-3.12A12.67,12.67,0,0,0,32,20.33a11.86,11.86,0,0,0,1.22,1.45,11.08,11.08,0,0,0,6.33,3.12.51.51,0,0,1,.45.49ZM14.11,30.29l1.35-7.35A4.69,4.69,0,0,0,16,23a4.69,4.69,0,0,0,.54-.06l1.34,7.33a1.52,1.52,0,0,1-.07.81L16,34.74l-1.79-3.62A1.56,1.56,0,0,1,14.11,30.29Zm2.77-9.49A2,2,0,0,1,14,19h4A2,2,0,0,1,16.88,20.8ZM22,57.55a2.37,2.37,0,0,1-.74,1.73A2.44,2.44,0,0,1,19.5,60,2.48,2.48,0,0,1,17,57.55V41a1,1,0,0,0-2,0V57.55A2.48,2.48,0,0,1,12.5,60a2.45,2.45,0,0,1-1.77-.73A2.36,2.36,0,0,1,10,57.55V24a1,1,0,0,0-2,0V35.86A2.07,2.07,0,0,1,6.2,38,2,2,0,0,1,4,36V24.66a5.64,5.64,0,0,1,3.43-5.2A5.4,5.4,0,0,1,9.66,19H12a4,4,0,0,0,1.57,3.17L12.14,30a3.57,3.57,0,0,0,.25,2l2.71,5.48a1,1,0,0,0,1.8,0l2.73-5.52a3.52,3.52,0,0,0,.22-2l-1.42-7.76A4,4,0,0,0,20,19h1.34A6.67,6.67,0,0,0,28,12.34V6a2,2,0,0,1,.59-1.41A2,2,0,0,1,30.16,4a1.83,1.83,0,0,1,1.14.51A2.28,2.28,0,0,1,32,6.17V14a8.84,8.84,0,0,1-.9,3.92,8.54,8.54,0,0,1-1.74,2.44,8.85,8.85,0,0,1-5.17,2.56A2.51,2.51,0,0,0,22,25.39V40.62l-.61.6a1,1,0,0,0,0,1.42l1,1a11.34,11.34,0,0,0-1,2.36H20a1,1,0,0,0-1,1v4a1,1,0,0,0,1,1h1.41a11.34,11.34,0,0,0,1,2.36l-1,1a1,1,0,0,0,0,1.42l.61.6Zm17.07-.06-.85-.86A1,1,0,0,0,37,56.51a9,9,0,0,1-3.16,1.31,1,1,0,0,0-.8,1V60H31V58.8a1,1,0,0,0-.8-1A9,9,0,0,1,27,56.51a1,1,0,0,0-1.26.12l-.85.86-1.42-1.42.86-.85A1,1,0,0,0,24.49,54a9,9,0,0,1-1.31-3.16,1,1,0,0,0-1-.8H21V48h1.2a1,1,0,0,0,1-.8A9,9,0,0,1,24.49,44a1,1,0,0,0-.12-1.26l-.86-.85,1.42-1.42.85.86a1,1,0,0,0,1.26.12,9,9,0,0,1,2.26-1.08,1,1,0,0,0,.7-.95V31a1,1,0,0,0-.87-1L32,26.56,34.87,30A1,1,0,0,0,34,31v8.46a1,1,0,0,0,.7.95A9,9,0,0,1,37,41.49a1,1,0,0,0,1.26-.12l.85-.86,1.42,1.42-.86.85A1,1,0,0,0,39.51,44a9,9,0,0,1,1.31,3.16,1,1,0,0,0,1,.8H43v2H41.8a1,1,0,0,0-1,.8A9,9,0,0,1,39.51,54a1,1,0,0,0,.12,1.26l.86.85ZM60,36a2,2,0,0,1-.67,1.49,2,2,0,0,1-1.54.5A2.09,2.09,0,0,1,56,35.81V24a1,1,0,0,0-2,0V57.55a2.37,2.37,0,0,1-.74,1.73A2.44,2.44,0,0,1,51.5,60,2.48,2.48,0,0,1,49,57.55V41a1,1,0,0,0-2,0V57.55A2.48,2.48,0,0,1,44.5,60a2.45,2.45,0,0,1-1.77-.73A2.36,2.36,0,0,1,42,57.55v-.17l.61-.6a1,1,0,0,0,0-1.42l-1-1a11.34,11.34,0,0,0,1-2.36H44a1,1,0,0,0,1-1V47a1,1,0,0,0-1-1H42.59a11.34,11.34,0,0,0-1-2.36l1-1a1,1,0,0,0,0-1.42l-.61-.6V25.39a2.51,2.51,0,0,0-2.19-2.47,8.85,8.85,0,0,1-5.17-2.56A8.66,8.66,0,0,1,33.1,18.3,10.94,10.94,0,0,0,34,14V6.17a4.35,4.35,0,0,0-.56-2.08A1.84,1.84,0,0,1,33.86,4a1.93,1.93,0,0,1,1.55.58A2,2,0,0,1,36,6v6.34A6.67,6.67,0,0,0,42.66,19H44a4,4,0,0,0,1.57,3.17L44.14,30a3.57,3.57,0,0,0,.25,2l2.71,5.48a1,1,0,0,0,1.8,0l2.73-5.52a3.52,3.52,0,0,0,.22-2l-1.42-7.76A4,4,0,0,0,52,19h2.34a5.4,5.4,0,0,1,2.23.46A5.64,5.64,0,0,1,60,24.66Z"/><path d="M9,9a7,7,0,1,0,7-7A7,7,0,0,0,9,9ZM21,9a5,5,0,1,1-5-5A5,5,0,0,1,21,9Z"/><path d="M32.07,43a6,6,0,1,0,6,6A6,6,0,0,0,32.07,43Zm0,10a4,4,0,1,1,4-4A4,4,0,0,1,32.07,53Z"/></svg>
