<svg id="Layer_1" enable-background="new 0 0 512 512" viewBox="0 0 512 512" xmlns="http://www.w3.org/2000/svg"><path d="m354.8 158.03c-33.31-1.23-68.06-.4-96.58 13.95-1.51.76-2.92.76-4.43 0-28.52-14.34-63.27-15.17-96.58-13.94h-.04c-8.43.35-15.03 7.23-15.03 15.67v12.25h-15.19c-8.44 0-15.31 6.87-15.31 15.31v137.82c0 8.44 6.87 15.31 15.31 15.31h258.12c8.44 0 15.31-6.87 15.31-15.31v-137.84c0-8.44-6.87-15.31-15.31-15.31h-15.19v-12.24c-.01-8.44-6.62-15.32-15.08-15.67zm-.92 15.96v130.52c-30.69-1.13-62.64-.43-89.88 11.28v-128.12c0-.26-.01-.51-.04-.76.49-.2.97-.42 1.45-.66 25.21-12.68 57.43-13.4 88.47-12.26zm-195.76 0c31.07-1.13 63.27-.41 88.47 12.26.48.24.96.46 1.45.66-.02.25-.04.5-.04.76v128.13c-21.68-9.32-46.34-11.68-70.98-11.68-6.32 0-12.64.15-18.91.38v-130.51zm226.26 27.94v136.46h-256.76v-136.46h14.51v102.9c0 4.36 1.66 8.26 4.8 11.28 3.1 2.99 7.04 4.49 11.43 4.39 30.87-1.15 62.93-.46 88.23 12.25 3.04 1.53 6.22 2.29 9.41 2.29 3.18 0 6.37-.76 9.4-2.29 25.31-12.71 57.37-13.4 88.33-12.25 4.29.11 8.24-1.4 11.34-4.39 3.14-3.03 4.8-6.93 4.8-11.29v-102.9h14.51zm-215.94-7.57c0-4.42 3.58-7.99 7.99-7.99 22.53 0 40.12 1.93 55.36 6.06 4.26 1.16 6.78 5.55 5.62 9.81-.97 3.56-4.19 5.9-7.71 5.9-.69 0-1.4-.09-2.1-.28-13.83-3.75-30.09-5.5-51.17-5.5-4.41-.01-7.99-3.59-7.99-8zm106.15 7.88c-1.16-4.26 1.36-8.65 5.62-9.81 15.24-4.14 32.83-6.06 55.36-6.06 4.42 0 7.99 3.58 7.99 7.99s-3.58 7.99-7.99 7.99c-21.08 0-37.34 1.75-51.17 5.5-.7.19-1.41.28-2.1.28-3.52.01-6.74-2.33-7.71-5.89zm68.97 20.86c0 4.42-3.58 7.99-7.99 7.99-21.06 0-37.32 1.74-51.18 5.48-.7.19-1.4.28-2.09.28-3.52 0-6.75-2.35-7.71-5.91-1.15-4.26 1.37-8.65 5.64-9.8 15.25-4.11 32.84-6.03 55.34-6.03 4.41 0 7.99 3.58 7.99 7.99zm-175.12 0c0-4.42 3.58-7.99 7.99-7.99 22.5 0 40.09 1.92 55.34 6.03 4.26 1.15 6.79 5.54 5.64 9.8-.96 3.56-4.19 5.91-7.71 5.91-.69 0-1.39-.09-2.09-.28-13.86-3.74-30.12-5.48-51.18-5.48-4.41.01-7.99-3.57-7.99-7.99zm0 28.76c-.01-4.41 3.57-8 7.98-8.01h.57c22.12 0 39.54 1.92 54.79 6.03 4.26 1.15 6.79 5.54 5.64 9.8-.96 3.56-4.19 5.91-7.71 5.91-.69 0-1.39-.09-2.09-.28-13.85-3.73-29.95-5.48-50.62-5.48-.19 0-.38 0-.56 0-4.42.01-8-3.56-8-7.97zm167.14-8.01c4.42.01 7.99 3.59 7.98 8.01-.01 4.41-3.58 7.98-7.99 7.98-.21-.01-.37 0-.56 0-20.67 0-36.77 1.74-50.62 5.48-.7.19-1.4.28-2.09.28-3.52 0-6.75-2.35-7.71-5.91-1.15-4.26 1.37-8.65 5.64-9.8 15.37-4.15 32.99-6.09 55.35-6.04zm-167.14 36.71c0-4.42 3.58-7.99 7.99-7.99 22.53 0 40.12 1.93 55.36 6.06 4.26 1.16 6.78 5.55 5.62 9.81-.97 3.56-4.19 5.9-7.71 5.9-.69 0-1.4-.09-2.1-.28-13.83-3.75-30.09-5.5-51.17-5.5-4.41 0-7.99-3.58-7.99-8zm106.15 7.88c-1.16-4.26 1.36-8.65 5.62-9.81 15.23-4.14 32.83-6.06 55.36-6.06 4.42 0 7.99 3.58 7.99 7.99s-3.58 7.99-7.99 7.99c-21.08 0-37.34 1.75-51.17 5.5-.7.19-1.41.28-2.1.28-3.52.01-6.74-2.33-7.71-5.89zm182.38 64.77c-18.02 37.2-45.98 68.65-80.86 90.96-35.84 22.92-77.37 35.04-120.11 35.04-58.08 0-113.09-22.19-154.9-62.49-38.52-37.13-62.1-85.99-67.24-138.74l-19.54 25.27c-1.58 2.04-3.94 3.1-6.33 3.1-1.71 0-3.43-.54-4.88-1.67-3.49-2.7-4.13-7.72-1.43-11.21l32.77-42.38c1.3-1.68 3.21-2.77 5.31-3.04 2.11-.27 4.23.31 5.91 1.61l42.38 32.8c3.49 2.7 4.13 7.72 1.43 11.21s-7.72 4.13-11.21 1.43l-28.81-22.29c8.53 107.45 97.65 190.42 206.54 190.42 78.92 0 152.16-45.92 186.58-116.98 1.93-3.97 6.71-5.63 10.68-3.71s5.63 6.7 3.71 10.67zm53.36-134.68-32.77 42.35c-1.58 2.04-3.94 3.1-6.33 3.1-1.71 0-3.43-.54-4.88-1.67l-42.38-32.77c-3.49-2.7-4.13-7.72-1.43-11.21s7.72-4.13 11.21-1.43l28.78 22.26c-8.57-107.33-97.94-190.39-206.53-190.39-80.12 0-151.63 44.83-186.61 116.99-1.93 3.97-6.71 5.63-10.68 3.71-3.97-1.93-5.63-6.71-3.71-10.68 18.03-37.2 46-68.65 80.89-90.96 35.84-22.93 77.37-35.04 120.11-35.04 57.8 0 112.62 22.01 154.36 61.97 38.8 37.16 62.6 86.24 67.77 139.25l19.55-25.27c2.7-3.49 7.72-4.13 11.21-1.43 3.5 2.71 4.14 7.73 1.44 11.22z"/></svg>