<?xml version="1.0" encoding="UTF-8"?>
<svg xmlns="http://www.w3.org/2000/svg" id="Layer_1" data-name="Layer 1" viewBox="0 0 64 64" width="512" height="512"><path d="M22.80371,23.76025A4.72762,4.72762,0,0,0,27.61084,28a4.87108,4.87108,0,0,0,3.8374-1.82373.99835.99835,0,0,0,.21826-.62354V8.46191a.99832.99832,0,0,0-.21826-.62353,4.87108,4.87108,0,0,0-3.8374-1.82373A4.70469,4.70469,0,0,0,22.7915,10.5835a3.711,3.711,0,0,0,.02051.38769,4.4771,4.4771,0,0,0-2.312,3.895,4.36577,4.36577,0,0,0,.78516,2.49805A4.36571,4.36571,0,0,0,20.5,19.8623,4.514,4.514,0,0,0,22.80371,23.76025Zm.48193-7.12011A2.44357,2.44357,0,0,1,22.5,14.86621a2.55164,2.55164,0,0,1,1.68713-2.33661.97726.97726,0,0,1,.76014.95575h2a2.98829,2.98829,0,0,0-2.1529-2.86993c-.00018-.01013-.00287-.02185-.00287-.03192a2.70584,2.70584,0,0,1,2.81934-2.56885,2.90191,2.90191,0,0,1,2.05566.82764v5.47039a3.884,3.884,0,0,0-2.75683,2.42707l-.03662.10254,1.88379.67285.03662-.103a1.805,1.805,0,0,1,.873-.96607v8.72632A2.90191,2.90191,0,0,1,27.61084,26a2.7615,2.7615,0,0,1-2.74255-2.025,3.00131,3.00131,0,0,0,1.8363-2.77039h-2a.98541.98541,0,0,1-.669.93671A2.55126,2.55126,0,0,1,22.5,19.8623a2.44354,2.44354,0,0,1,.78564-1.77392.9995.9995,0,0,0,0-1.44824Z"/><path d="M34.3335,19.73975a2.188,2.188,0,0,1-.62891-.09229.9996.9996,0,0,0-1.28809.95752v6.332a.99986.99986,0,0,0,.896.99463,9.88359,9.88359,0,0,0,1.02345.05371c.04394,0,.08838-.00049.13232-.001a10.0409,10.0409,0,0,0,2.67236-.41114,1.00019,1.00019,0,0,0,.72022-.96V25.40869a.33073.33073,0,0,1,.12549-.28467,8.48231,8.48231,0,0,0,1.27734-.77588.19075.19075,0,0,1,.19971.01465l.99023.603a1.0005,1.0005,0,0,0,1.23975-.16016,11.11827,11.11827,0,0,0,2.77783-5.07177A.99932.99932,0,0,0,44.02,18.6416l-1.15479-.70312a8.91717,8.91717,0,0,0,0-1.8916l1.1543-.70313a.99932.99932,0,0,0,.45117-1.09229,11.122,11.122,0,0,0-2.77246-5.0747A1.00023,1.00023,0,0,0,40.4585,9.0166l-.99512.606a.18868.18868,0,0,1-.19971.01465,8.4463,8.4463,0,0,0-1.27734-.77588.33178.33178,0,0,1-.12549-.28516v-1.209a1.00034,1.00034,0,0,0-.71973-.96A9.80844,9.80844,0,0,0,34.19922,6.001c-.30078.0039-.59668.02246-.89014.0542a.99972.99972,0,0,0-.89258.99414v6.33056a.99981.99981,0,0,0,1.28662.958,2.20333,2.20333,0,0,1,.63038-.09228,2.60911,2.60911,0,0,1,2.4375,2.74707A2.60912,2.60912,0,0,1,34.3335,19.73975Zm.083-7.49317V8.00049a7.92591,7.92591,0,0,1,1.44434.15088v.4248a2.30918,2.30918,0,0,0,1.24268,2.07959,6.44265,6.44265,0,0,1,.97558.59278,2.17232,2.17232,0,0,0,2.42432.082l.27929-.16993a9.13371,9.13371,0,0,1,1.54639,2.8711l-1.06592.64892a.99946.99946,0,0,0-.46484,1.02686,7.10537,7.10537,0,0,1,0,2.57031.99945.99945,0,0,0,.46484,1.02686l1.06592.64892a9.11971,9.11971,0,0,1-1.55078,2.86817l-.2749-.167a2.16756,2.16756,0,0,0-2.42432.082,6.50118,6.50118,0,0,1-.97656.59326,2.30862,2.30862,0,0,0-1.2417,2.07861v.42188a7.75158,7.75158,0,0,1-1.42041.15381l-.02393.00048V21.73877a4.6123,4.6123,0,0,0,4.3545-4.74609A4.61231,4.61231,0,0,0,34.4165,12.24658Z"/><path d="M16.32031,20.19873a16.0033,16.0033,0,0,0,31.35938,0l-1.96-.39746a14.00349,14.00349,0,0,1-27.43946,0Z"/><path d="M46,17q0,.47094-.03076.93506l1.99609.12988Q47.99976,17.53687,48,17q0-.53686-.03467-1.06494l-1.99609.12988Q45.99927,16.52856,46,17Z"/><path d="M32,3A14.03635,14.03635,0,0,1,45.71973,14.19873l1.96-.39746a16.0033,16.0033,0,0,0-31.35938,0l1.96.39746A14.03635,14.03635,0,0,1,32,3Z"/><path d="M18.03076,17.93506Q18.00073,17.47144,18,17q0-.47094.03076-.93506l-1.99609-.12988Q16.00025,16.46313,16,17q0,.53686.03467,1.06494Z"/><path d="M49.999,44a.99849.99849,0,0,0,.80078-.3999l6-8-1.5996-1.2002-5.4004,7.2002-3.1997-2.3999-1.2002,1.5996,4,3A.99443.99443,0,0,0,49.999,44Z"/><polygon points="9.464 43.95 13 40.414 16.536 43.95 17.95 42.536 14.414 39 17.95 35.464 16.536 34.05 13 37.586 9.464 34.05 8.05 35.464 11.586 39 8.05 42.536 9.464 43.95"/><path d="M62,47H56.97467a10,10,0,1,0-11.94934,0H37.1701l-.17352-2.083A1.0001,1.0001,0,0,0,36,44H28a1.0001,1.0001,0,0,0-.99658.917L26.8299,47H18.97467A10,10,0,1,0,7.02533,47H2a1,1,0,0,0-1,1v4a1,1,0,0,0,1,1H26.33l-.24994,3H23a1,1,0,0,0-1,1v5a1,1,0,0,0,1,1H41a1,1,0,0,0,1-1V57a1,1,0,0,0-1-1H37.91992L37.67,53H62a1,1,0,0,0,1-1V48A1,1,0,0,0,62,47ZM43,39a8,8,0,1,1,8,8A8.00917,8.00917,0,0,1,43,39ZM5,39a8,8,0,1,1,8,8A8.00917,8.00917,0,0,1,5,39ZM3,51V49H26.66327l-.16663,2Zm37,7v3H24V58h3a1.0001,1.0001,0,0,0,.99658-.917L28.91992,46h6.16016l.92334,11.083A1.0001,1.0001,0,0,0,37,58Zm21-7H37.50336l-.16663-2H61Z"/></svg>
