<?xml version="1.0"?>
<svg xmlns="http://www.w3.org/2000/svg" id="line" viewBox="0 0 64 64"><path d="M7.48242,27.02148a1.02421,1.02421,0,0,0,.23828.02832,1.00021,1.00021,0,0,0,.97071-.76318A24.218,24.218,0,0,1,26.28809,8.69141,1,1,0,1,0,25.81152,6.749,25.89789,25.89789,0,0,0,6.74805,25.813,1.00019,1.00019,0,0,0,7.48242,27.02148Z"/><path d="M56.51855,36.97852a1.00424,1.00424,0,0,0-1.21.73339A24.24879,24.24879,0,0,1,37.71191,55.30859a1.00047,1.00047,0,0,0,.47657,1.94336A25.93059,25.93059,0,0,0,57.252,38.18848,1.00178,1.00178,0,0,0,56.51855,36.97852Z"/><path d="M26.28809,55.30859A24.24881,24.24881,0,0,1,8.69141,37.71191a1.00047,1.00047,0,0,0-1.94336.47657A25.93059,25.93059,0,0,0,25.81152,57.252a1.00047,1.00047,0,0,0,.47657-1.94336Z"/><path d="M37.71191,8.69141A24.218,24.218,0,0,1,55.30859,26.28662a1.00021,1.00021,0,0,0,.97071.76318,1.03056,1.03056,0,0,0,.23828-.02832A1.00019,1.00019,0,0,0,57.252,25.813,25.89789,25.89789,0,0,0,38.18848,6.749a1,1,0,1,0-.47657,1.94239Z"/><path d="M32,12.5A19.5,19.5,0,1,0,51.5,32,19.52227,19.52227,0,0,0,32,12.5Zm0,37A17.5,17.5,0,1,1,49.5,32,17.52,17.52,0,0,1,32,49.5Z"/><path d="M32,19A13,13,0,1,0,45,32,13.01474,13.01474,0,0,0,32,19Zm0,24a10.95991,10.95991,0,0,1-8-3.47351v-.71692a2.93312,2.93312,0,0,1,2.00879-2.78711l4.26367-1.42187a5.50051,5.50051,0,0,1,3.45508,0l4.26465,1.42285A2.93137,2.93137,0,0,1,40,38.80957v.71692A10.95991,10.95991,0,0,1,32,43Zm0-10.67871a3.68775,3.68775,0,1,1,3.68749-3.688A3.69191,3.69191,0,0,1,32,32.32129Zm9.70886,4.83789A4.92025,4.92025,0,0,0,38.624,34.126l-3.10235-1.035a5.68753,5.68753,0,1,0-7.04346-.00012L25.377,34.125a4.92321,4.92321,0,0,0-3.08581,3.03424,11,11,0,1,1,19.41772-.00006Z"/><path d="M32,10a3,3,0,1,0-3-3A3.00328,3.00328,0,0,0,32,10Zm0-4a1,1,0,1,1-1,1A1.001,1.001,0,0,1,32,6Z"/><path d="M10,32a3,3,0,1,0-3,3A3.00328,3.00328,0,0,0,10,32ZM6,32a1,1,0,1,1,1,1A1.001,1.001,0,0,1,6,32Z"/><path d="M32,54a3,3,0,1,0,3,3A3.00328,3.00328,0,0,0,32,54Zm0,4a1,1,0,1,1,1-1A1.00067,1.00067,0,0,1,32,58Z"/><path d="M57,29a3,3,0,1,0,3,3A3.00328,3.00328,0,0,0,57,29Zm0,4a1,1,0,1,1,1-1A1.001,1.001,0,0,1,57,33Z"/></svg>
