<svg id="Layer_1" enable-background="new 0 0 1024 1024" viewBox="0 0 1024 1024" xmlns="http://www.w3.org/2000/svg"><g id="XMLID_194_"><g id="XMLID_300_"><g id="XMLID_54_"><path id="XMLID_58_" d="m894.4 348.8c.7 1.6 1.4 3.2 2.1 4.8-1-2.4-2-4.8-3-7.2 15.2 36.2 25.6 74.2 31 113.1-.4-2.7-.7-5.3-1.1-8 5.3 39.9 5.4 80.4.1 120.3.4-2.7.7-5.3 1.1-8-5.3 38.9-15.6 76.9-30.8 113 1-2.4 2-4.8 3-7.2-8.7 20.5-18.8 40.4-30.5 59.4-5.8 9.5-12 18.9-18.6 27.9-1.5 2.1-3.1 4.2-4.7 6.4-.8 1.1-1.6 2.1-2.4 3.1-2.7 3.5 4.7-6 1.1-1.4-3.5 4.5-7.1 8.9-10.8 13.2-14.2 16.8-29.7 32.6-46.3 47.2-4.1 3.6-8.3 7.1-12.5 10.6-2.2 1.8-4.4 3.6-6.7 5.3-.5.4-1 .8-1.6 1.2-2.4 1.9 3.9-3.2 3.5-2.7-.8 1.1-2.6 2-3.7 2.8-8.8 6.6-17.8 12.8-27 18.7-21.4 13.7-43.9 25.5-67.2 35.4 2.4-1 4.8-2 7.2-3-36.2 15.2-74.2 25.5-113 30.8 2.7-.4 5.3-.7 8-1.1-39.7 5.3-79.9 5.3-119.5 0 2.7.4 5.3.7 8 1.1-38.9-5.3-76.9-15.6-113-30.8l7.2 3c-20.5-8.7-40.4-18.8-59.4-30.5-9.5-5.8-18.9-12-27.9-18.6-2.1-1.5-4.2-3.1-6.4-4.7-1.1-.8-2.1-1.6-3.1-2.4-3.5-2.7 6 4.7 1.4 1.1-4.5-3.5-8.9-7.1-13.2-10.8-16.8-14.2-32.6-29.7-47.2-46.3-3.6-4.1-7.1-8.3-10.6-12.5-1.8-2.2-3.6-4.4-5.3-6.7-.4-.5-.8-1-1.2-1.6-1.9-2.4 3.2 3.9 2.7 3.5-1.1-.8-2-2.6-2.8-3.7-6.6-8.8-12.8-17.8-18.7-27-13.7-21.4-25.5-43.9-35.4-67.2 1 2.4 2 4.8 3 7.2-15.2-36.2-25.5-74.2-30.8-113 .4 2.7.7 5.3 1.1 8-5.3-39.7-5.3-79.9 0-119.5-.4 2.7-.7 5.3-1.1 8 5.3-38.9 15.6-76.9 30.8-113-1 2.4-2 4.8-3 7.2 8.7-20.5 18.8-40.4 30.5-59.4 5.8-9.5 12-18.9 18.6-27.9 1.5-2.1 3.1-4.2 4.7-6.4.8-1.1 1.6-2.1 2.4-3.1 2.7-3.5-4.7 6-1.1 1.4 3.5-4.5 7.1-8.9 10.8-13.2 14.2-16.8 29.7-32.6 46.3-47.2 4.1-3.6 8.3-7.1 12.5-10.6 2.2-1.8 4.4-3.6 6.7-5.3.5-.4 1-.8 1.6-1.2 2.4-1.9-3.9 3.2-3.5 2.7.8-1.1 2.6-2 3.7-2.8 8.8-6.6 17.8-12.8 27-18.7 21.4-13.7 43.9-25.5 67.2-35.4-2.4 1-4.8 2-7.2 3 36.2-15.2 74.2-25.5 113-30.8-2.7.4-5.3.7-8 1.1 39.9-5.3 80.4-5.2 120.3.1-2.7-.4-5.3-.7-8-1.1 38.9 5.4 76.9 15.8 113 31-2.4-1-4.8-2-7.2-3 1.6.7 3.2 1.4 4.8 2.1 7.7 3.3 14.7 5.3 23.1 3 7-1.9 14.5-7.3 17.9-13.8 3.7-7 5.5-15.4 3-23.1-2.2-6.9-6.8-14.9-13.8-17.9-52.2-22.7-106.9-36.5-163.9-40.2-44.7-2.9-90 .9-133.7 10.5-79.9 17.5-154.3 57-215 111.6-60.4 54.3-105.9 124.7-131.9 201.6-27.2 80.4-31.3 168-13.9 250.9 16.8 80.1 55.7 154.9 109.8 216.1 53.9 60.9 123.8 106.8 200.5 133.5 80.1 27.9 167.7 32.7 250.7 16 80.4-16.1 155.4-54.4 217.1-108 61.4-53.3 107.8-122.8 135.2-199.3 31.4-87.7 35.3-185.2 12.6-275.4-6.6-26.3-15.9-51.6-26.7-76.5-2.8-6.4-11.5-12-17.9-13.8-7.2-2-16.7-1.1-23.1 3s-12 10.3-13.8 17.9c-2 8.4-.5 15.3 2.9 23.2z"/></g></g><g id="XMLID_196_"><g id="XMLID_36_"><path id="XMLID_40_" d="m778.9 454.1c1.9 8.6 3.4 17.2 4.6 25.8-.4-2.7-.7-5.3-1.1-8 3.4 26.7 3.4 53.7 0 80.4.4-2.7.7-5.3 1.1-8-3.6 26.8-10.8 53-21.3 77.9 1-2.4 2-4.8 3-7.2-5.9 13.8-12.7 27.2-20.6 40-3.9 6.4-8 12.6-12.4 18.6-1 1.4-2.1 2.8-3.1 4.2-.7.9-1.3 1.7-2 2.6-2.1 2.8 4.5-5.7 2.3-3-2.3 2.9-4.6 5.8-7 8.6-9.6 11.3-20 22-31.1 31.8-2.8 2.5-5.6 4.9-8.5 7.2-1.4 1.1-2.7 2.2-4.1 3.3-1 .8-3.6 2.8.5-.3 4.5-3.5.4-.3-.6.4-6 4.5-12.1 8.7-18.4 12.7-14.3 9.2-29.4 17.1-45 23.7l7.2-3c-24.9 10.5-51.1 17.7-77.9 21.3 2.7-.4 5.3-.7 8-1.1-26.8 3.5-53.9 3.5-80.6 0 2.7.4 5.3.7 8 1.1-26.8-3.6-53-10.8-77.9-21.3l7.2 3c-13.8-5.9-27.2-12.7-40-20.6-6.4-3.9-12.6-8-18.6-12.4-1.4-1-2.8-2.1-4.2-3.1-.9-.7-1.7-1.3-2.6-2-2.8-2.1 5.7 4.5 3 2.3-2.9-2.3-5.8-4.6-8.6-7-11.3-9.6-22-20-31.8-31.1-2.5-2.8-4.9-5.6-7.2-8.5-1.1-1.4-2.2-2.7-3.3-4.1-.8-1-2.8-3.6.3.5 3.5 4.5.3.4-.4-.6-4.5-6-8.7-12.1-12.7-18.4-9.2-14.3-17.1-29.4-23.7-45 1 2.4 2 4.8 3 7.2-10.5-24.9-17.7-51.1-21.3-77.9.4 2.7.7 5.3 1.1 8-3.5-26.8-3.5-53.9 0-80.6-.4 2.7-.7 5.3-1.1 8 3.6-26.8 10.8-53 21.3-77.9-1 2.4-2 4.8-3 7.2 5.9-13.8 12.7-27.2 20.6-40 3.9-6.4 8-12.6 12.4-18.6 1-1.4 2.1-2.8 3.1-4.2.7-.9 1.3-1.7 2-2.6 2.1-2.8-4.5 5.7-2.3 3 2.3-2.9 4.6-5.8 7-8.6 9.6-11.3 20-22 31.1-31.8 2.8-2.5 5.6-4.9 8.5-7.2 1.4-1.1 2.7-2.2 4.1-3.3 1-.8 3.6-2.8-.5.3-4.5 3.5-.4.3.6-.4 6-4.5 12.1-8.7 18.4-12.7 14.3-9.2 29.4-17.1 45-23.7-2.4 1-4.8 2-7.2 3 24.9-10.5 51.1-17.7 77.9-21.3-2.7.4-5.3.7-8 1.1 26.7-3.5 53.7-3.5 80.4 0-2.7-.4-5.3-.7-8-1.1 8.7 1.2 17.3 2.7 25.8 4.6 15.3 3.3 33.2-4.6 36.9-21 3.4-15.1-4.6-33.3-21-36.9-60.7-13.3-125.2-10.5-183.9 10.5-50.6 18.1-97 47.8-133.6 87.3-36.6 39.6-63.8 87.8-77.9 140-14.7 54.5-15.1 112.7-1.7 167.5 13 52.8 39.5 101.6 75.6 142.1 35.8 40.3 81.6 70.5 131.9 89.6 52.7 20.1 109.8 24.6 165.4 16.9 51.7-7.2 102.3-27.8 144.4-58.6 43.2-31.7 79.5-72.6 103.4-120.8 25.5-51.3 38.1-108.7 35.1-166-1-19.3-3.7-38.6-7.8-57.5-3.4-15.4-22.1-25.8-36.9-21-16.5 5-24.9 20.3-21.3 36.7z"/></g></g><g id="XMLID_2_"><g id="XMLID_41_"><path id="XMLID_65_" d="m629.6 496.1c1.2 11.8 1.1 23.6-.4 35.4.4-2.7.7-5.3 1.1-8-1.8 13-5.2 25.6-10.1 37.7 1-2.4 2-4.8 3-7.2-3.7 8.7-8.1 17.1-13.4 25-1.3 2-2.7 4-4.1 5.9-2.7 3.8 4.1-5.1 1.9-2.4-.7.8-1.4 1.7-2.1 2.6-3.1 3.7-6.3 7.3-9.7 10.7-3.2 3.2-6.6 6.3-10.2 9.3-.8.7-1.7 1.4-2.5 2.1-4.1 3.4 6.3-4.6 1.9-1.5-1.8 1.3-3.6 2.6-5.4 3.8-8.1 5.4-16.6 10-25.6 13.8l7.2-3c-12.1 5-24.7 8.4-37.7 10.1 2.7-.4 5.3-.7 8-1.1-13 1.6-26 1.6-38.9 0 2.7.4 5.3.7 8 1.1-13-1.8-25.6-5.2-37.7-10.1l7.2 3c-8.7-3.7-17.1-8.1-25-13.4-2-1.3-4-2.7-5.9-4.1-3.8-2.7 5.1 4.1 2.4 1.9-.8-.7-1.7-1.4-2.6-2.1-3.7-3.1-7.3-6.3-10.7-9.7-3.2-3.2-6.3-6.6-9.3-10.2-.7-.8-1.4-1.7-2.1-2.5-3.4-4.1 4.6 6.3 1.5 1.9-1.3-1.8-2.6-3.6-3.8-5.4-5.4-8.1-10-16.6-13.8-25.6 1 2.4 2 4.8 3 7.2-5-12.1-8.4-24.7-10.1-37.7.4 2.7.7 5.3 1.1 8-1.6-13-1.6-26 0-38.9-.4 2.7-.7 5.3-1.1 8 1.8-13 5.2-25.6 10.1-37.7-1 2.4-2 4.8-3 7.2 3.7-8.7 8.1-17.1 13.4-25 1.3-2 2.7-4 4.1-5.9 2.7-3.8-4.1 5.1-1.9 2.4.7-.8 1.4-1.7 2.1-2.6 3.1-3.7 6.3-7.3 9.7-10.7 3.2-3.2 6.6-6.3 10.2-9.3.8-.7 1.7-1.4 2.5-2.1 4.1-3.4-6.3 4.6-1.9 1.5 1.8-1.3 3.6-2.6 5.4-3.8 8.1-5.4 16.6-10 25.6-13.8-2.4 1-4.8 2-7.2 3 12.1-5 24.7-8.4 37.7-10.1-2.7.4-5.3.7-8 1.1 12.3-1.6 24.7-1.6 37-.2 7.1.8 16.3-3.9 21.2-8.8 5.2-5.2 9.1-13.7 8.8-21.2-.3-7.8-2.9-15.8-8.8-21.2-6.2-5.7-12.9-7.9-21.2-8.8-56.5-6.3-116 17.3-152.6 60.9-18.3 21.8-32.1 47.1-38.5 75-6.7 28.8-6.4 59.1 1.1 87.7 7.2 27.3 21.3 52.3 40 73.4 18.8 21.3 42.9 36.7 69.2 47.2 51.7 20.7 114.4 13.6 160.7-17.2 48.3-32.2 78.6-85.1 81-143.3.3-7.4 0-14.9-.7-22.2-.8-8.2-2.8-15.2-8.8-21.2-5.2-5.2-13.7-9.1-21.2-8.8-15 .5-31.7 13.2-30.1 29.9z"/></g></g><g id="XMLID_248_"><g id="XMLID_18_"><path id="XMLID_22_" d="m936.3 154.7c-20.6 20.6-41.2 41.2-61.7 61.7-32.5 32.5-65.1 65.1-97.6 97.6-7.5 7.5-15.1 15.1-22.6 22.6 7.1-2.9 14.1-5.9 21.2-8.8-31.7-.2-63.4-.5-95.1-.7-4.5 0-9-.1-13.6-.1l30 30c-.2-31.7-.5-63.4-.7-95.1 0-4.5-.1-9-.1-13.6-2.9 7.1-5.9 14.1-8.8 21.2 20.6-20.6 41.2-41.2 61.7-61.7 32.5-32.5 65.1-65.1 97.6-97.6 7.5-7.5 15.1-15.1 22.6-22.6-17.1-7.1-34.1-14.1-51.2-21.2.2 31.7.5 63.4.7 95.1 0 4.5.1 9 .1 13.6.1 16.3 13.7 29.9 30 30 31.7.2 63.4.5 95.1.7 4.5 0 9 .1 13.6.1 15.7.1 30.7-13.9 30-30-.7-16.4-13.2-29.9-30-30-31.7-.2-63.4-.5-95.1-.7-4.5 0-9-.1-13.6-.1 10 10 20 20 30 30-.2-31.7-.5-63.4-.7-95.1 0-4.5-.1-9-.1-13.6-.1-12-7.5-22.8-18.4-27.4-11-4.6-24.2-2.4-32.8 6.2-11.6 11.6-23.2 23.2-34.8 34.8-24 24-48 48-72 72-20.7 20.7-41.4 41.4-62.2 62.2-4.2 4.2-8.6 8.3-12.7 12.7-6.3 6.7-9.1 15.1-9.1 24.1 0 5.1.1 10.2.1 15.3.2 29.5.4 59.1.6 88.6v2.1c.1 16.3 13.7 29.9 30 30 26.6.2 53.2.4 79.9.6 9.6.1 19.2.5 28.7.2 13.9-.4 20.9-8.4 29.5-17 19.2-19.2 38.4-38.4 57.6-57.6 24.6-24.6 49.1-49.1 73.7-73.7 13.9-13.9 28.1-27.6 41.8-41.8.2-.2.4-.4.7-.7 11.1-11.1 11.9-31.5 0-42.4s-30.5-11.8-42.3.1z"/></g></g><g id="XMLID_249_"><g id="XMLID_12_"><path id="XMLID_16_" d="m534.7 531.7c17.2-17.2 34.5-34.5 51.7-51.7 27.6-27.6 55.2-55.2 82.8-82.8 6.3-6.3 12.6-12.6 18.9-18.9 11.1-11.1 11.9-31.5 0-42.4-12-11-30.6-11.9-42.4 0-17.2 17.2-34.5 34.5-51.7 51.7-27.6 27.6-55.2 55.2-82.8 82.8-6.3 6.3-12.6 12.6-18.9 18.9-11.1 11.1-11.9 31.5 0 42.4 12 11 30.6 11.9 42.4 0z"/></g></g></g></svg>