<?xml version="1.0"?>
<svg xmlns="http://www.w3.org/2000/svg" id="Line_Expand" data-name="Line Expand" viewBox="0 0 64 64"><path d="M6.75,22A1.751,1.751,0,0,0,5,20.25H2a1.75,1.75,0,0,0,0,3.5H5A1.751,1.751,0,0,0,6.75,22Z"/><path d="M62,20.25H59a1.75,1.75,0,0,0,0,3.5h3a1.75,1.75,0,0,0,0-3.5Z"/><path d="M53.867,9.375a1.751,1.751,0,0,0,2.391.641l2.6-1.5A1.751,1.751,0,0,0,59.5,6.125h0a1.751,1.751,0,0,0-2.391-.641l-2.6,1.5a1.751,1.751,0,0,0-.641,2.391Z"/><path d="M10.133,34.625a1.751,1.751,0,0,0-2.391-.641l-2.6,1.5A1.751,1.751,0,0,0,4.5,37.875h0a1.751,1.751,0,0,0,2.391.641l2.6-1.5a1.751,1.751,0,0,0,.641-2.391Z"/><path d="M5.144,8.516l2.6,1.5a1.751,1.751,0,0,0,2.391-.641h0a1.751,1.751,0,0,0-.641-2.391l-2.6-1.5A1.751,1.751,0,0,0,4.5,6.125h0A1.751,1.751,0,0,0,5.144,8.516Z"/><path d="M58.856,35.484l-2.6-1.5a1.751,1.751,0,0,0-2.391.641h0a1.751,1.751,0,0,0,.641,2.391l2.6,1.5a1.751,1.751,0,0,0,2.391-.641h0A1.751,1.751,0,0,0,58.856,35.484Z"/><path d="M32,.25A21.775,21.775,0,0,0,10.25,22a21.55,21.55,0,0,0,8.766,17.428A5.7,5.7,0,0,1,21.25,44v7.25H21a1.75,1.75,0,0,0,0,3.5h.393a10.75,10.75,0,0,0,21.214,0H43a1.75,1.75,0,0,0,0-3.5h-.25V44a5.7,5.7,0,0,1,2.234-4.572A21.55,21.55,0,0,0,53.75,22,21.775,21.775,0,0,0,32,.25Zm0,60a7.263,7.263,0,0,1-7.036-5.5H39.036A7.263,7.263,0,0,1,32,60.25Zm7.25-9H24.75v-3.5h14.5Zm3.643-14.629A9.213,9.213,0,0,0,39.25,44v.25H24.75V44a9.213,9.213,0,0,0-3.643-7.379A18.081,18.081,0,0,1,13.75,22a18.25,18.25,0,0,1,36.5,0A18.081,18.081,0,0,1,42.893,36.621Z"/><path d="M46.415,20.97c-.259-.356-6.436-8.72-14.415-8.72s-14.156,8.364-14.415,8.72a1.75,1.75,0,0,0,0,2.06c.259.356,6.436,8.72,14.415,8.72s14.156-8.364,14.415-8.72A1.75,1.75,0,0,0,46.415,20.97ZM34.75,22A2.75,2.75,0,1,1,32,19.25,2.752,2.752,0,0,1,34.75,22ZM21.256,22c1.726-1.985,5.9-6.15,10.577-6.248a6.25,6.25,0,0,0,0,12.5C27.153,28.149,22.981,23.984,21.256,22Zm10.911,6.248a6.25,6.25,0,0,0,0-12.5c4.679.1,8.85,4.263,10.577,6.248C41.017,23.985,36.846,28.15,32.167,28.248Z"/></svg>
